<svg xmlns="http://www.w3.org/2000/svg" width="19" height="18" viewBox="0 0 19 18" fill="none">
<path fill-rule="evenodd" clip-rule="evenodd" d="M9.48066 0.461243C9.03297 0.461243 8.66825 0.649595 8.33639 0.902852C8.02552 1.14003 7.68262 1.48294 7.28146 1.88414L7.25325 1.91235C6.84268 2.32291 6.48477 2.4845 5.93241 2.4845C5.86318 2.4845 5.77582 2.48204 5.67716 2.47927C5.42426 2.47215 5.09709 2.46295 4.81085 2.4877C4.39214 2.52391 3.86886 2.63849 3.4717 3.03899C3.07758 3.43643 2.96579 3.95756 2.93066 4.37364C2.90672 4.65728 2.91592 4.982 2.92302 5.23311C2.92582 5.33203 2.9283 5.41954 2.9283 5.4886C2.9283 6.04097 2.76671 6.39889 2.35612 6.80947L2.32792 6.83767C1.92673 7.23883 1.58381 7.58173 1.34664 7.89253C1.09339 8.22446 0.905037 8.58919 0.905029 9.03687C0.905037 9.48448 1.0934 9.8492 1.34664 10.1811C1.58386 10.4921 1.92685 10.835 2.32815 11.2363L2.35615 11.2643C2.62233 11.5304 2.74788 11.7031 2.81905 11.866C2.88835 12.0246 2.9283 12.2255 2.9283 12.5851C2.9283 12.6544 2.92585 12.7417 2.92307 12.8404C2.91595 13.0933 2.90675 13.4204 2.9315 13.7067C2.96772 14.1254 3.08231 14.6487 3.48282 15.0459C3.88026 15.44 4.40139 15.5517 4.81746 15.5868C5.10108 15.6108 5.42581 15.6016 5.6769 15.5945C5.77584 15.5917 5.86334 15.5892 5.93239 15.5892C6.28437 15.5892 6.48219 15.6246 6.6379 15.6889C6.79347 15.7531 6.95987 15.868 7.2105 16.1187C7.26399 16.1721 7.33446 16.2477 7.41575 16.3348C7.5992 16.5314 7.8379 16.7872 8.0607 16.982C8.39869 17.2775 8.88364 17.6125 9.48066 17.6125C10.0778 17.6125 10.5626 17.2775 10.9007 16.982C11.1234 16.7872 11.362 16.5317 11.5454 16.335C11.6267 16.2477 11.6973 16.1722 11.7508 16.1186C12.0014 15.868 12.1678 15.7531 12.3234 15.6889C12.4791 15.6246 12.6769 15.5892 13.0289 15.5892C13.098 15.5892 13.1855 15.5917 13.2844 15.5945C13.5355 15.6016 13.8602 15.6108 14.1439 15.5868C14.5599 15.5517 15.0811 15.44 15.4785 15.0459C15.879 14.6487 15.9936 14.1254 16.0298 13.7067C16.0545 13.4204 16.0454 13.0933 16.0383 12.8404C16.0355 12.7418 16.033 12.6543 16.033 12.5851C16.033 12.2255 16.073 12.0246 16.1423 11.866C16.2134 11.7031 16.339 11.5304 16.6051 11.2643L16.6332 11.2363C17.0345 10.835 17.3775 10.4921 17.6147 10.1811C17.8679 9.8492 18.0563 9.48448 18.0563 9.03687C18.0563 8.58919 17.8679 8.22446 17.6147 7.89253C17.3775 7.58173 17.0346 7.23884 16.6335 6.8377L16.6052 6.80947C16.339 6.54329 16.2134 6.37068 16.1423 6.20774C16.073 6.04911 16.033 5.84824 16.033 5.4886C16.033 5.41943 16.0355 5.33214 16.0383 5.23357C16.0454 4.98066 16.0545 4.6533 16.0298 4.36706C15.9936 3.94837 15.879 3.42508 15.4786 3.02793C15.0811 2.63378 14.56 2.52199 14.1439 2.48685C13.8602 2.46291 13.5355 2.4721 13.2844 2.47922C13.1855 2.48202 13.098 2.4845 13.0289 2.4845C12.4764 2.4845 12.1185 2.32284 11.7081 1.91235L11.6798 1.88414C11.2787 1.48294 10.9358 1.14003 10.6249 0.902852C10.2931 0.649595 9.92835 0.461243 9.48066 0.461243ZM12.4847 7.55564C12.768 7.21831 12.7243 6.7151 12.387 6.43173C12.0496 6.14835 11.5464 6.19211 11.263 6.52946L8.44137 9.88853L7.61877 9.15406C7.29013 8.86065 6.78584 8.88921 6.49241 9.21788C6.19898 9.54646 6.22752 10.0508 6.55616 10.3442L7.99209 11.6263C8.15299 11.77 8.36527 11.8423 8.5805 11.8269C8.79565 11.8115 8.99548 11.7095 9.1342 11.5443L12.4847 7.55564Z" fill="#51C55A"/>
</svg>