<svg xmlns="http://www.w3.org/2000/svg" width="930" height="1024" viewBox="0 0 930 1024" fill="none">
<g opacity="0.5">
<g style="mix-blend-mode:soft-light" opacity="0.5">
<path d="M13.5405 1477.33L13.5405 1522.46H58.6751M13.5405 1477.33H58.6751M13.5405 1477.33L13.5405 1432.19M58.6751 1477.33V1522.46M58.6751 1477.33H103.81M58.6751 1477.33L58.6751 1432.19M58.6751 1522.46H103.81M103.81 1477.33V1522.46M103.81 1477.33H148.944M103.81 1477.33V1432.19M103.81 1522.46H148.944M148.944 1477.33V1522.46M148.944 1477.33H194.079M148.944 1477.33V1432.19M148.944 1522.46H194.079M194.079 1477.33V1522.46M194.079 1477.33H239.213M194.079 1477.33V1432.19M194.079 1522.46H239.213M239.213 1477.33V1522.46M239.213 1477.33H284.348M239.213 1477.33V1432.19M239.213 1522.46H284.348M284.348 1477.33V1522.46M284.348 1477.33H329.482M284.348 1477.33V1432.19M284.348 1522.46H329.482M329.482 1477.33V1522.46M329.482 1477.33H374.617M329.482 1477.33V1432.19M329.482 1522.46H374.617M374.617 1477.33V1522.46M374.617 1477.33H419.751M374.617 1477.33V1432.19M374.617 1522.46H419.751M419.751 1477.33V1522.46M419.751 1477.33H464.886M419.751 1477.33V1432.19M419.751 1522.46H464.886M464.886 1477.33V1522.46M464.886 1477.33H510.02M464.886 1477.33V1432.19M464.886 1522.46H510.02M510.02 1477.33V1522.46M510.02 1477.33H555.155M510.02 1477.33V1432.19M510.02 1522.46H555.155M555.155 1477.33V1522.46M555.155 1477.33H600.289M555.155 1477.33V1432.19M555.155 1522.46H600.289M600.289 1477.33V1522.46M600.289 1477.33H645.424M600.289 1477.33V1432.19M600.289 1522.46H645.424M645.424 1477.33V1522.46M645.424 1477.33H690.558M645.424 1477.33V1432.19M645.424 1522.46H690.558M690.558 1477.33V1522.46M690.558 1477.33H735.693M690.558 1477.33V1432.19M690.558 1522.46H735.693M735.693 1477.33V1522.46M735.693 1477.33H780.827M735.693 1477.33V1432.19M735.693 1522.46H780.827M780.827 1477.33V1522.46M780.827 1477.33H825.962M780.827 1477.33V1432.19M780.827 1522.46H825.962M825.962 1477.33V1522.46M825.962 1477.33H871.097M825.962 1477.33V1432.19M825.962 1522.46H871.097M871.097 1477.33V1522.46M871.097 1477.33H916.231M871.097 1477.33V1432.19M871.097 1522.46H916.231V1477.33M916.231 1477.33V1432.19M13.5405 1432.19H58.6751M13.5405 1432.19L13.5405 1387.06M58.6751 1432.19H103.81M58.6751 1432.19V1387.06M103.81 1432.19H148.944M103.81 1432.19L103.81 1387.06M148.944 1432.19H194.079M148.944 1432.19V1387.06M194.079 1432.19H239.213M194.079 1432.19V1387.06M239.213 1432.19H284.348M239.213 1432.19V1387.06M284.348 1432.19H329.482M284.348 1432.19V1387.06M329.482 1432.19H374.617M329.482 1432.19V1387.06M374.617 1432.19H419.751M374.617 1432.19V1387.06M419.751 1432.19H464.886M419.751 1432.19V1387.06M464.886 1432.19H510.02M464.886 1432.19V1387.06M510.02 1432.19H555.155M510.02 1432.19V1387.06M555.155 1432.19H600.289M555.155 1432.19V1387.06M600.289 1432.19H645.424M600.289 1432.19V1387.06M645.424 1432.19H690.558M645.424 1432.19V1387.06M690.558 1432.19H735.693M690.558 1432.19V1387.06M735.693 1432.19H780.827M735.693 1432.19V1387.06M780.827 1432.19H825.962M780.827 1432.19V1387.06M825.962 1432.19H871.097M825.962 1432.19V1387.06M871.097 1432.19H916.231M871.097 1432.19V1387.06M916.231 1432.19V1387.06M13.5405 1387.06H58.6751M13.5405 1387.06L13.5405 1341.92M58.6751 1387.06H103.81M58.6751 1387.06L58.6751 1341.92M103.81 1387.06H148.944M103.81 1387.06V1341.92M148.944 1387.06H194.079M148.944 1387.06V1341.92M194.079 1387.06H239.213M194.079 1387.06V1341.92M239.213 1387.06H284.348M239.213 1387.06V1341.92M284.348 1387.06H329.482M284.348 1387.06V1341.92M329.482 1387.06H374.617M329.482 1387.06V1341.92M374.617 1387.06H419.751M374.617 1387.06V1341.92M419.751 1387.06H464.886M419.751 1387.06V1341.92M464.886 1387.06H510.02M464.886 1387.06V1341.92M510.02 1387.06H555.155M510.02 1387.06V1341.92M555.155 1387.06H600.289M555.155 1387.06V1341.92M600.289 1387.06H645.424M600.289 1387.06V1341.92M645.424 1387.06H690.558M645.424 1387.06V1341.92M690.558 1387.06H735.693M690.558 1387.06V1341.92M735.693 1387.06H780.827M735.693 1387.06V1341.92M780.827 1387.06H825.962M780.827 1387.06V1341.92M825.962 1387.06H871.097M825.962 1387.06V1341.92M871.097 1387.06H916.231M871.097 1387.06V1341.92M916.231 1387.06V1341.92M13.5405 1341.92H58.6751M13.5405 1341.92L13.5405 1296.79M58.6751 1341.92H103.81M58.6751 1341.92V1296.79M103.81 1341.92H148.944M103.81 1341.92V1296.79M148.944 1341.92H194.079M148.944 1341.92V1296.79M194.079 1341.92H239.213M194.079 1341.92V1296.79M239.213 1341.92H284.348M239.213 1341.92V1296.79M284.348 1341.92H329.482M284.348 1341.92V1296.79M329.482 1341.92H374.617M329.482 1341.92V1296.79M374.617 1341.92H419.751M374.617 1341.92V1296.79M419.751 1341.92H464.886M419.751 1341.92V1296.79M464.886 1341.92H510.02M464.886 1341.92V1296.79M510.02 1341.92H555.155M510.02 1341.92V1296.79M555.155 1341.92H600.289M555.155 1341.92V1296.79M600.289 1341.92H645.424M600.289 1341.92V1296.79M645.424 1341.92H690.558M645.424 1341.92V1296.79M690.558 1341.92H735.693M690.558 1341.92V1296.79M735.693 1341.92H780.827M735.693 1341.92V1296.79M780.827 1341.92H825.962M780.827 1341.92V1296.79M825.962 1341.92H871.097M825.962 1341.92V1296.79M871.097 1341.92H916.231M871.097 1341.92V1296.79M916.231 1341.92V1296.79M13.5405 1296.79H58.6751M13.5405 1296.79L13.5405 1251.65M58.6751 1296.79H103.81M58.6751 1296.79V1251.65M103.81 1296.79H148.944M103.81 1296.79V1251.65M148.944 1296.79H194.079M148.944 1296.79L148.944 1251.65M194.079 1296.79H239.213M194.079 1296.79L194.079 1251.65M239.213 1296.79H284.348M239.213 1296.79L239.213 1251.65M284.348 1296.79H329.482M284.348 1296.79V1251.65M329.482 1296.79H374.617M329.482 1296.79V1251.65M374.617 1296.79H419.751M374.617 1296.79V1251.65M419.751 1296.79H464.886M419.751 1296.79V1251.65M464.886 1296.79H510.02M464.886 1296.79V1251.65M510.02 1296.79H555.155M510.02 1296.79V1251.65M555.155 1296.79H600.289M555.155 1296.79V1251.65M600.289 1296.79H645.424M600.289 1296.79V1251.65M645.424 1296.79H690.558M645.424 1296.79V1251.65M690.558 1296.79H735.693M690.558 1296.79V1251.65M735.693 1296.79H780.827M735.693 1296.79V1251.65M780.827 1296.79H825.962M780.827 1296.79V1251.65M825.962 1296.79H871.097M825.962 1296.79V1251.65M871.097 1296.79H916.231M871.097 1296.79V1251.65M916.231 1296.79V1251.65M13.5405 1251.65H58.6751M13.5405 1251.65L13.5405 1206.52M58.6751 1251.65H103.81M58.6751 1251.65L58.6751 1206.52M103.81 1251.65H148.944M103.81 1251.65V1206.52M148.944 1251.65H194.079M148.944 1251.65V1206.52M194.079 1251.65H239.213M194.079 1251.65V1206.52M239.213 1251.65H284.348M239.213 1251.65V1206.52M284.348 1251.65H329.482M284.348 1251.65V1206.52M329.482 1251.65H374.617M329.482 1251.65V1206.52M374.617 1251.65H419.751M374.617 1251.65V1206.52M419.751 1251.65H464.886M419.751 1251.65V1206.52M464.886 1251.65H510.02M464.886 1251.65V1206.52M510.02 1251.65H555.155M510.02 1251.65V1206.52M555.155 1251.65H600.289M555.155 1251.65V1206.52M600.289 1251.65H645.424M600.289 1251.65V1206.52M645.424 1251.65H690.558M645.424 1251.65V1206.52M690.558 1251.65H735.693M690.558 1251.65V1206.52M735.693 1251.65H780.827M735.693 1251.65V1206.52M780.827 1251.65H825.962M780.827 1251.65V1206.52M825.962 1251.65H871.097M825.962 1251.65V1206.52M871.097 1251.65H916.231M871.097 1251.65V1206.52M916.231 1251.65V1206.52M13.5405 1206.52H58.6751M13.5405 1206.52L13.5405 1161.38M58.6751 1206.52H103.81M58.6751 1206.52V1161.38M103.81 1206.52H148.944M103.81 1206.52L103.81 1161.38M148.944 1206.52H194.079M148.944 1206.52V1161.38M194.079 1206.52H239.213M194.079 1206.52V1161.38M239.213 1206.52H284.348M239.213 1206.52V1161.38M284.348 1206.52H329.482M284.348 1206.52V1161.38M329.482 1206.52H374.617M329.482 1206.52V1161.38M374.617 1206.52H419.751M374.617 1206.52V1161.38M419.751 1206.52H464.886M419.751 1206.52V1161.38M464.886 1206.52H510.02M464.886 1206.52V1161.38M510.02 1206.52H555.155M510.02 1206.52V1161.38M555.155 1206.52H600.289M555.155 1206.52V1161.38M600.289 1206.52H645.424M600.289 1206.52V1161.38M645.424 1206.52H690.558M645.424 1206.52V1161.38M690.558 1206.52H735.693M690.558 1206.52V1161.38M735.693 1206.52H780.827M735.693 1206.52V1161.38M780.827 1206.52H825.962M780.827 1206.52V1161.38M825.962 1206.52H871.097M825.962 1206.52V1161.38M871.097 1206.52H916.231M871.097 1206.52V1161.38M916.231 1206.52V1161.38M13.5405 1161.38H58.6751M13.5405 1161.38L13.5405 1116.25M58.6751 1161.38H103.81M58.6751 1161.38L58.6751 1116.25M103.81 1161.38H148.944M103.81 1161.38V1116.25M148.944 1161.38H194.079M148.944 1161.38V1116.25M194.079 1161.38H239.213M194.079 1161.38V1116.25M239.213 1161.38H284.348M239.213 1161.38V1116.25M284.348 1161.38H329.482M284.348 1161.38V1116.25M329.482 1161.38H374.617M329.482 1161.38V1116.25M374.617 1161.38H419.751M374.617 1161.38V1116.25M419.751 1161.38H464.886M419.751 1161.38V1116.25M464.886 1161.38H510.02M464.886 1161.38V1116.25M510.02 1161.38H555.155M510.02 1161.38V1116.25M555.155 1161.38H600.289M555.155 1161.38V1116.25M600.289 1161.38H645.424M600.289 1161.38V1116.25M645.424 1161.38H690.558M645.424 1161.38V1116.25M690.558 1161.38H735.693M690.558 1161.38V1116.25M735.693 1161.38H780.827M735.693 1161.38V1116.25M780.827 1161.38H825.962M780.827 1161.38V1116.25M825.962 1161.38H871.097M825.962 1161.38V1116.25M871.097 1161.38H916.231M871.097 1161.38V1116.25M916.231 1161.38V1116.25M13.5405 1116.25H58.6751M13.5405 1116.25L13.5405 1071.11M58.6751 1116.25H103.81M58.6751 1116.25V1071.11M103.81 1116.25H148.944M103.81 1116.25V1071.11M148.944 1116.25H194.079M148.944 1116.25V1071.11M194.079 1116.25H239.213M194.079 1116.25V1071.11M239.213 1116.25H284.348M239.213 1116.25V1071.11M284.348 1116.25H329.482M284.348 1116.25V1071.11M329.482 1116.25H374.617M329.482 1116.25V1071.11M374.617 1116.25H419.751M374.617 1116.25V1071.11M419.751 1116.25H464.886M419.751 1116.25V1071.11M464.886 1116.25H510.02M464.886 1116.25V1071.11M510.02 1116.25H555.155M510.02 1116.25V1071.11M555.155 1116.25H600.289M555.155 1116.25V1071.11M600.289 1116.25H645.424M600.289 1116.25V1071.11M645.424 1116.25H690.558M645.424 1116.25V1071.11M690.558 1116.25H735.693M690.558 1116.25V1071.11M735.693 1116.25H780.827M735.693 1116.25V1071.11M780.827 1116.25H825.962M780.827 1116.25V1071.11M825.962 1116.25H871.097M825.962 1116.25V1071.11M871.097 1116.25H916.231M871.097 1116.25V1071.11M916.231 1116.25V1071.11M13.5405 1071.11H58.6751M13.5405 1071.11L13.5405 1025.98M58.6751 1071.11H103.81M58.6751 1071.11V1025.98M103.81 1071.11H148.944M103.81 1071.11V1025.98M148.944 1071.11H194.079M148.944 1071.11V1025.98M194.079 1071.11H239.213M194.079 1071.11V1025.98M239.213 1071.11H284.348M239.213 1071.11V1025.98M284.348 1071.11H329.482M284.348 1071.11L284.348 1025.98M329.482 1071.11H374.617M329.482 1071.11L329.482 1025.98M374.617 1071.11H419.751M374.617 1071.11L374.617 1025.98M419.751 1071.11H464.886M419.751 1071.11L419.751 1025.98M464.886 1071.11H510.02M464.886 1071.11L464.886 1025.98M510.02 1071.11H555.155M510.02 1071.11L510.02 1025.98M555.155 1071.11H600.289M555.155 1071.11V1025.98M600.289 1071.11H645.424M600.289 1071.11V1025.98M645.424 1071.11H690.558M645.424 1071.11V1025.98M690.558 1071.11H735.693M690.558 1071.11V1025.98M735.693 1071.11H780.827M735.693 1071.11V1025.98M780.827 1071.11H825.962M780.827 1071.11V1025.98M825.962 1071.11H871.097M825.962 1071.11V1025.98M871.097 1071.11H916.231M871.097 1071.11V1025.98M916.231 1071.11V1025.98M13.5405 1025.98H58.6751M13.5405 1025.98L13.5405 980.846M58.6751 1025.98H103.81M58.6751 1025.98L58.6751 980.846M103.81 1025.98H148.944M103.81 1025.98V980.846M148.944 1025.98H194.079M148.944 1025.98V980.846M194.079 1025.98H239.213M194.079 1025.98V980.846M239.213 1025.98H284.348M239.213 1025.98V980.846M284.348 1025.98H329.482M284.348 1025.98V980.846M329.482 1025.98H374.617M329.482 1025.98V980.846M374.617 1025.98H419.751M374.617 1025.98V980.846M419.751 1025.98H464.886M419.751 1025.98V980.846M464.886 1025.98H510.02M464.886 1025.98V980.846M510.02 1025.98H555.155M510.02 1025.98V980.846M555.155 1025.98H600.289M555.155 1025.98V980.846M600.289 1025.98H645.424M600.289 1025.98V980.846M645.424 1025.98H690.558M645.424 1025.98V980.846M690.558 1025.98H735.693M690.558 1025.98V980.846M735.693 1025.98H780.827M735.693 1025.98V980.846M780.827 1025.98H825.962M780.827 1025.98V980.846M825.962 1025.98H871.097M825.962 1025.98V980.846M871.097 1025.98H916.231M871.097 1025.98V980.846M916.231 1025.98V980.846M13.5405 980.846H58.6751M13.5405 980.846L13.5405 935.711M58.6751 980.846H103.81M58.6751 980.846V935.711M103.81 980.846H148.944M103.81 980.846L103.81 935.711M148.944 980.846H194.079M148.944 980.846V935.711M194.079 980.846H239.213M194.079 980.846V935.711M239.213 980.846H284.348M239.213 980.846V935.711M284.348 980.846H329.482M284.348 980.846V935.711M329.482 980.846H374.617M329.482 980.846V935.711M374.617 980.846H419.751M374.617 980.846V935.711M419.751 980.846H464.886M419.751 980.846V935.711M464.886 980.846H510.02M464.886 980.846V935.711M510.02 980.846H555.155M510.02 980.846V935.711M555.155 980.846H600.289M555.155 980.846V935.711M600.289 980.846H645.424M600.289 980.846V935.711M645.424 980.846H690.558M645.424 980.846V935.711M690.558 980.846H735.693M690.558 980.846V935.711M735.693 980.846H780.827M735.693 980.846V935.711M780.827 980.846H825.962M780.827 980.846V935.711M825.962 980.846H871.097M825.962 980.846V935.711M871.097 980.846H916.231M871.097 980.846V935.711M916.231 980.846V935.711M13.5405 935.711H58.6751M13.5405 935.711L13.5405 890.576M58.6751 935.711H103.81M58.6751 935.711V890.576M103.81 935.711H148.944M103.81 935.711V890.576M148.944 935.711H194.079M148.944 935.711V890.576M194.079 935.711H239.213M194.079 935.711V890.576M239.213 935.711H284.348M239.213 935.711V890.576M284.348 935.711H329.482M284.348 935.711V890.576M329.482 935.711H374.617M329.482 935.711V890.576M374.617 935.711H419.751M374.617 935.711V890.576M419.751 935.711H464.886M419.751 935.711V890.576M464.886 935.711H510.02M464.886 935.711V890.576M510.02 935.711H555.155M510.02 935.711V890.576M555.155 935.711H600.289M555.155 935.711V890.576M600.289 935.711H645.424M600.289 935.711V890.576M645.424 935.711H690.558M645.424 935.711V890.576M690.558 935.711H735.693M690.558 935.711V890.576M735.693 935.711H780.827M735.693 935.711V890.576M780.827 935.711H825.962M780.827 935.711V890.576M825.962 935.711H871.097M825.962 935.711V890.576M871.097 935.711H916.231M871.097 935.711V890.576M916.231 935.711V890.576M13.5405 890.576H58.6751M13.5405 890.576L13.5405 845.442M58.6751 890.576H103.81M58.6751 890.576L58.6751 845.442M103.81 890.576H148.944M103.81 890.576V845.442M148.944 890.576H194.079M148.944 890.576V845.442M194.079 890.576H239.213M194.079 890.576V845.442M239.213 890.576H284.348M239.213 890.576V845.442M284.348 890.576H329.482M284.348 890.576V845.442M329.482 890.576H374.617M329.482 890.576V845.442M374.617 890.576H419.751M374.617 890.576V845.442M419.751 890.576H464.886M419.751 890.576V845.442M464.886 890.576H510.02M464.886 890.576V845.442M510.02 890.576H555.155M510.02 890.576V845.442M555.155 890.576H600.289M555.155 890.576V845.442M600.289 890.576H645.424M600.289 890.576V845.442M645.424 890.576H690.558M645.424 890.576V845.442M690.558 890.576H735.693M690.558 890.576V845.442M735.693 890.576H780.827M735.693 890.576V845.442M780.827 890.576H825.962M780.827 890.576V845.442M825.962 890.576H871.097M825.962 890.576V845.442M871.097 890.576H916.231M871.097 890.576V845.442M916.231 890.576V845.442M13.5405 845.442H58.6751M13.5405 845.442L13.5405 800.307M58.6751 845.442H103.81M58.6751 845.442V800.307M103.81 845.442H148.944M103.81 845.442V800.307M148.944 845.442H194.079M148.944 845.442L148.944 800.307M194.079 845.442H239.213M194.079 845.442L194.079 800.307M239.213 845.442H284.348M239.213 845.442L239.213 800.307M284.348 845.442H329.482M284.348 845.442V800.307M329.482 845.442H374.617M329.482 845.442V800.307M374.617 845.442H419.751M374.617 845.442V800.307M419.751 845.442H464.886M419.751 845.442V800.307M464.886 845.442H510.02M464.886 845.442V800.307M510.02 845.442H555.155M510.02 845.442V800.307M555.155 845.442H600.289M555.155 845.442V800.307M600.289 845.442H645.424M600.289 845.442V800.307M645.424 845.442H690.558M645.424 845.442V800.307M690.558 845.442H735.693M690.558 845.442V800.307M735.693 845.442H780.827M735.693 845.442V800.307M780.827 845.442H825.962M780.827 845.442V800.307M825.962 845.442H871.097M825.962 845.442V800.307M871.097 845.442H916.231M871.097 845.442V800.307M916.231 845.442V800.307M13.5405 800.307H58.6751M13.5405 800.307L13.5405 755.173M58.6751 800.307H103.81M58.6751 800.307L58.6751 755.173M103.81 800.307H148.944M103.81 800.307V755.173M148.944 800.307H194.079M148.944 800.307V755.173M194.079 800.307H239.213M194.079 800.307V755.173M239.213 800.307H284.348M239.213 800.307V755.173M284.348 800.307H329.482M284.348 800.307V755.173M329.482 800.307H374.617M329.482 800.307V755.173M374.617 800.307H419.751M374.617 800.307V755.173M419.751 800.307H464.886M419.751 800.307V755.173M464.886 800.307H510.02M464.886 800.307V755.173M510.02 800.307H555.155M510.02 800.307V755.173M555.155 800.307H600.289M555.155 800.307V755.173M600.289 800.307H645.424M600.289 800.307V755.173M645.424 800.307H690.558M645.424 800.307V755.173M690.558 800.307H735.693M690.558 800.307V755.173M735.693 800.307H780.827M735.693 800.307V755.173M780.827 800.307H825.962M780.827 800.307V755.173M825.962 800.307H871.097M825.962 800.307V755.173M871.097 800.307H916.231M871.097 800.307V755.173M916.231 800.307V755.173M13.5405 755.173H58.6751M13.5405 755.173L13.5405 710.038M58.6751 755.173H103.81M58.6751 755.173V710.038M103.81 755.173H148.944M103.81 755.173L103.81 710.038M148.944 755.173H194.079M148.944 755.173V710.038M194.079 755.173H239.213M194.079 755.173V710.038M239.213 755.173H284.348M239.213 755.173V710.038M284.348 755.173H329.482M284.348 755.173V710.038M329.482 755.173H374.617M329.482 755.173V710.038M374.617 755.173H419.751M374.617 755.173V710.038M419.751 755.173H464.886M419.751 755.173V710.038M464.886 755.173H510.02M464.886 755.173V710.038M510.02 755.173H555.155M510.02 755.173V710.038M555.155 755.173H600.289M555.155 755.173V710.038M600.289 755.173H645.424M600.289 755.173V710.038M645.424 755.173H690.558M645.424 755.173V710.038M690.558 755.173H735.693M690.558 755.173V710.038M735.693 755.173H780.827M735.693 755.173V710.038M780.827 755.173H825.962M780.827 755.173V710.038M825.962 755.173H871.097M825.962 755.173V710.038M871.097 755.173H916.231M871.097 755.173V710.038M916.231 755.173V710.038M13.5405 710.038H58.6751M13.5405 710.038L13.5405 664.904M58.6751 710.038H103.81M58.6751 710.038V664.904M103.81 710.038H148.944M103.81 710.038V664.904M148.944 710.038H194.079M148.944 710.038V664.904M194.079 710.038H239.213M194.079 710.038V664.904M239.213 710.038H284.348M239.213 710.038V664.904M284.348 710.038H329.482M284.348 710.038V664.904M329.482 710.038H374.617M329.482 710.038V664.904M374.617 710.038H419.751M374.617 710.038V664.904M419.751 710.038H464.886M419.751 710.038V664.904M464.886 710.038H510.02M464.886 710.038V664.904M510.02 710.038H555.155M510.02 710.038V664.904M555.155 710.038H600.289M555.155 710.038V664.904M600.289 710.038H645.424M600.289 710.038V664.904M645.424 710.038H690.558M645.424 710.038V664.904M690.558 710.038H735.693M690.558 710.038V664.904M735.693 710.038H780.827M735.693 710.038V664.904M780.827 710.038H825.962M780.827 710.038V664.904M825.962 710.038H871.097M825.962 710.038V664.904M871.097 710.038H916.231M871.097 710.038V664.904M916.231 710.038V664.904M13.5405 664.904H58.6751M13.5405 664.904L13.5405 619.769M58.6751 664.904H103.81M58.6751 664.904L58.6751 619.769M103.81 664.904H148.944M103.81 664.904V619.769M148.944 664.904H194.079M148.944 664.904V619.769M194.079 664.904H239.213M194.079 664.904V619.769M239.213 664.904H284.348M239.213 664.904V619.769M284.348 664.904H329.482M284.348 664.904V619.769M329.482 664.904H374.617M329.482 664.904V619.769M374.617 664.904H419.751M374.617 664.904V619.769M419.751 664.904H464.886M419.751 664.904V619.769M464.886 664.904H510.02M464.886 664.904V619.769M510.02 664.904H555.155M510.02 664.904V619.769M555.155 664.904H600.289M555.155 664.904V619.769M600.289 664.904H645.424M600.289 664.904V619.769M645.424 664.904H690.558M645.424 664.904V619.769M690.558 664.904H735.693M690.558 664.904V619.769M735.693 664.904H780.827M735.693 664.904V619.769M780.827 664.904H825.962M780.827 664.904V619.769M825.962 664.904H871.097M825.962 664.904V619.769M871.097 664.904H916.231M871.097 664.904V619.769M916.231 664.904V619.769M13.5405 619.769H58.6751M13.5405 619.769L13.5405 574.635M58.6751 619.769H103.81M58.6751 619.769V574.635M103.81 619.769H148.944M103.81 619.769V574.635M148.944 619.769H194.079M148.944 619.769V574.635M194.079 619.769H239.213M194.079 619.769V574.635M239.213 619.769H284.348M239.213 619.769V574.635M284.348 619.769H329.482M284.348 619.769V574.635M329.482 619.769H374.617M329.482 619.769V574.635M374.617 619.769H419.751M374.617 619.769V574.635M419.751 619.769H464.886M419.751 619.769V574.635M464.886 619.769H510.02M464.886 619.769V574.635M510.02 619.769H555.155M510.02 619.769V574.635M555.155 619.769H600.289M555.155 619.769L555.155 574.635M600.289 619.769H645.424M600.289 619.769L600.289 574.635M645.424 619.769H690.558M645.424 619.769L645.424 574.635M690.558 619.769H735.693M690.558 619.769L690.558 574.635M735.693 619.769H780.827M735.693 619.769L735.693 574.635M780.827 619.769H825.962M780.827 619.769L780.827 574.635M825.962 619.769H871.097M825.962 619.769L825.962 574.635M871.097 619.769H916.231M871.097 619.769L871.097 574.635M916.231 619.769L916.231 574.635M13.5405 574.635H58.6751M13.5405 574.635L13.5405 529.5M58.6751 574.635H103.81M58.6751 574.635L58.6751 529.5M103.81 574.635H148.944M103.81 574.635V529.5M148.944 574.635H194.079M148.944 574.635V529.5M194.079 574.635H239.213M194.079 574.635V529.5M239.213 574.635H284.348M239.213 574.635V529.5M284.348 574.635H329.482M284.348 574.635V529.5M329.482 574.635H374.617M329.482 574.635V529.5M374.617 574.635H419.751M374.617 574.635V529.5M419.751 574.635H464.886M419.751 574.635V529.5M464.886 574.635H510.02M464.886 574.635V529.5M510.02 574.635H555.155M510.02 574.635V529.5M555.155 574.635H600.289M555.155 574.635V529.5M600.289 574.635H645.424M600.289 574.635V529.5M645.424 574.635H690.558M645.424 574.635V529.5M690.558 574.635H735.693M690.558 574.635V529.5M735.693 574.635H780.827M735.693 574.635V529.5M780.827 574.635H825.962M780.827 574.635V529.5M825.962 574.635H871.097M825.962 574.635V529.5M871.097 574.635H916.231M871.097 574.635V529.5M916.231 574.635V529.5M13.5405 529.5H58.6751M13.5405 529.5L13.5405 484.366M58.6751 529.5H103.81M58.6751 529.5V484.366M103.81 529.5H148.944M103.81 529.5V484.366M148.944 529.5H194.079M148.944 529.5V484.366M194.079 529.5H239.213M194.079 529.5V484.366M239.213 529.5H284.348M239.213 529.5V484.366M284.348 529.5H329.482M284.348 529.5V484.366M329.482 529.5H374.617M329.482 529.5V484.366M374.617 529.5H419.751M374.617 529.5V484.366M419.751 529.5H464.886M419.751 529.5V484.366M464.886 529.5H510.02M464.886 529.5V484.366M510.02 529.5H555.155M510.02 529.5V484.366M555.155 529.5H600.289M555.155 529.5V484.366M600.289 529.5H645.424M600.289 529.5V484.366M645.424 529.5H690.558M645.424 529.5V484.366M690.558 529.5H735.693M690.558 529.5V484.366M735.693 529.5H780.827M735.693 529.5V484.366M780.827 529.5H825.962M780.827 529.5V484.366M825.962 529.5H871.097M825.962 529.5V484.366M871.097 529.5H916.231M871.097 529.5V484.366M916.231 529.5V484.366M13.5405 484.366H58.6751M13.5405 484.366L13.5405 439.231M58.6751 484.366H103.81M58.6751 484.366V439.231M103.81 484.366H148.944M103.81 484.366L103.81 439.231M148.944 484.366H194.079M148.944 484.366V439.231M194.079 484.366H239.213M194.079 484.366V439.231M239.213 484.366H284.348M239.213 484.366V439.231M284.348 484.366H329.482M284.348 484.366V439.231M329.482 484.366H374.617M329.482 484.366V439.231M374.617 484.366H419.751M374.617 484.366V439.231M419.751 484.366H464.886M419.751 484.366V439.231M464.886 484.366H510.02M464.886 484.366V439.231M510.02 484.366H555.155M510.02 484.366V439.231M555.155 484.366H600.289M555.155 484.366V439.231M600.289 484.366H645.424M600.289 484.366V439.231M645.424 484.366H690.558M645.424 484.366V439.231M690.558 484.366H735.693M690.558 484.366V439.231M735.693 484.366H780.827M735.693 484.366V439.231M780.827 484.366H825.962M780.827 484.366V439.231M825.962 484.366H871.097M825.962 484.366V439.231M871.097 484.366H916.231M871.097 484.366V439.231M916.231 484.366V439.231M13.5405 439.231H58.6751M13.5405 439.231L13.5405 394.097M58.6751 439.231H103.81M58.6751 439.231L58.6751 394.097M103.81 439.231H148.944M103.81 439.231V394.097M148.944 439.231H194.079M148.944 439.231V394.097M194.079 439.231H239.213M194.079 439.231V394.097M239.213 439.231H284.348M239.213 439.231V394.097M284.348 439.231H329.482M284.348 439.231V394.097M329.482 439.231H374.617M329.482 439.231V394.097M374.617 439.231H419.751M374.617 439.231V394.097M419.751 439.231H464.886M419.751 439.231V394.097M464.886 439.231H510.02M464.886 439.231V394.097M510.02 439.231H555.155M510.02 439.231V394.097M555.155 439.231H600.289M555.155 439.231V394.097M600.289 439.231H645.424M600.289 439.231V394.097M645.424 439.231H690.558M645.424 439.231V394.097M690.558 439.231H735.693M690.558 439.231V394.097M735.693 439.231H780.827M735.693 439.231V394.097M780.827 439.231H825.962M780.827 439.231V394.097M825.962 439.231H871.097M825.962 439.231V394.097M871.097 439.231H916.231M871.097 439.231V394.097M916.231 439.231V394.097M13.5405 394.097H58.6751M13.5405 394.097L13.5405 348.962M58.6751 394.097H103.81M58.6751 394.097V348.962M103.81 394.097H148.944M103.81 394.097V348.962M148.944 394.097H194.079M148.944 394.097L148.944 348.962M194.079 394.097H239.213M194.079 394.097L194.079 348.962M239.213 394.097H284.348M239.213 394.097L239.213 348.962M284.348 394.097H329.482M284.348 394.097V348.962M329.482 394.097H374.617M329.482 394.097V348.962M374.617 394.097H419.751M374.617 394.097V348.962M419.751 394.097H464.886M419.751 394.097V348.962M464.886 394.097H510.02M464.886 394.097V348.962M510.02 394.097H555.155M510.02 394.097V348.962M555.155 394.097H600.289M555.155 394.097V348.962M600.289 394.097H645.424M600.289 394.097V348.962M645.424 394.097H690.558M645.424 394.097V348.962M690.558 394.097H735.693M690.558 394.097V348.962M735.693 394.097H780.827M735.693 394.097V348.962M780.827 394.097H825.962M780.827 394.097V348.962M825.962 394.097H871.097M825.962 394.097V348.962M871.097 394.097H916.231M871.097 394.097V348.962M916.231 394.097V348.962M13.5405 348.962H58.6751M13.5405 348.962L13.5405 303.828M58.6751 348.962H103.81M58.6751 348.962L58.6751 303.828M103.81 348.962H148.944M103.81 348.962V303.828M148.944 348.962H194.079M148.944 348.962V303.828M194.079 348.962H239.213M194.079 348.962V303.828M239.213 348.962H284.348M239.213 348.962V303.828M284.348 348.962H329.482M284.348 348.962V303.828M329.482 348.962H374.617M329.482 348.962V303.828M374.617 348.962H419.751M374.617 348.962V303.828M419.751 348.962H464.886M419.751 348.962V303.828M464.886 348.962H510.02M464.886 348.962V303.828M510.02 348.962H555.155M510.02 348.962V303.828M555.155 348.962H600.289M555.155 348.962V303.828M600.289 348.962H645.424M600.289 348.962V303.828M645.424 348.962H690.558M645.424 348.962V303.828M690.558 348.962H735.693M690.558 348.962V303.828M735.693 348.962H780.827M735.693 348.962V303.828M780.827 348.962H825.962M780.827 348.962V303.828M825.962 348.962H871.097M825.962 348.962V303.828M871.097 348.962H916.231M871.097 348.962V303.828M916.231 348.962V303.828M13.5405 303.828H58.6751M13.5405 303.828L13.5405 258.693M58.6751 303.828H103.81M58.6751 303.828V258.693M103.81 303.828H148.944M103.81 303.828V258.693M148.944 303.828H194.079M148.944 303.828V258.693M194.079 303.828H239.213M194.079 303.828V258.693M239.213 303.828H284.348M239.213 303.828V258.693M284.348 303.828H329.482M284.348 303.828V258.693M329.482 303.828H374.617M329.482 303.828V258.693M374.617 303.828H419.751M374.617 303.828V258.693M419.751 303.828H464.886M419.751 303.828V258.693M464.886 303.828H510.02M464.886 303.828V258.693M510.02 303.828H555.155M510.02 303.828V258.693M555.155 303.828H600.289M555.155 303.828V258.693M600.289 303.828H645.424M600.289 303.828V258.693M645.424 303.828H690.558M645.424 303.828V258.693M690.558 303.828H735.693M690.558 303.828V258.693M735.693 303.828H780.827M735.693 303.828V258.693M780.827 303.828H825.962M780.827 303.828V258.693M825.962 303.828H871.097M825.962 303.828V258.693M871.097 303.828H916.231M871.097 303.828V258.693M916.231 303.828V258.693M13.5405 258.693H58.6751M13.5405 258.693L13.5405 213.558M58.6751 258.693H103.81M58.6751 258.693V213.558M103.81 258.693H148.944M103.81 258.693L103.81 213.558M148.944 258.693H194.079M148.944 258.693V213.558M194.079 258.693H239.213M194.079 258.693V213.558M239.213 258.693H284.348M239.213 258.693V213.558M284.348 258.693H329.482M284.348 258.693V213.558M329.482 258.693H374.617M329.482 258.693V213.558M374.617 258.693H419.751M374.617 258.693V213.558M419.751 258.693H464.886M419.751 258.693V213.558M464.886 258.693H510.02M464.886 258.693V213.558M510.02 258.693H555.155M510.02 258.693V213.558M555.155 258.693H600.289M555.155 258.693V213.558M600.289 258.693H645.424M600.289 258.693V213.558M645.424 258.693H690.558M645.424 258.693V213.558M690.558 258.693H735.693M690.558 258.693V213.558M735.693 258.693H780.827M735.693 258.693V213.558M780.827 258.693H825.962M780.827 258.693V213.558M825.962 258.693H871.097M825.962 258.693V213.558M871.097 258.693H916.231M871.097 258.693V213.558M916.231 258.693V213.558M13.5405 213.558H58.6751M13.5405 213.558L13.5405 168.424M58.6751 213.558H103.81M58.6751 213.558L58.6751 168.424M103.81 213.558H148.944M103.81 213.558V168.424M148.944 213.558H194.079M148.944 213.558V168.424M194.079 213.558H239.213M194.079 213.558V168.424M239.213 213.558H284.348M239.213 213.558V168.424M284.348 213.558H329.482M284.348 213.558V168.424M329.482 213.558H374.617M329.482 213.558V168.424M374.617 213.558H419.751M374.617 213.558V168.424M419.751 213.558H464.886M419.751 213.558V168.424M464.886 213.558H510.02M464.886 213.558V168.424M510.02 213.558H555.155M510.02 213.558V168.424M555.155 213.558H600.289M555.155 213.558V168.424M600.289 213.558H645.424M600.289 213.558V168.424M645.424 213.558H690.558M645.424 213.558V168.424M690.558 213.558H735.693M690.558 213.558V168.424M735.693 213.558H780.827M735.693 213.558V168.424M780.827 213.558H825.962M780.827 213.558V168.424M825.962 213.558H871.097M825.962 213.558V168.424M871.097 213.558H916.231M871.097 213.558V168.424M916.231 213.558V168.424M13.5405 168.424H58.6751M13.5405 168.424L13.5405 123.289M58.6751 168.424H103.81M58.6751 168.424V123.289M103.81 168.424H148.944M103.81 168.424V123.289M148.944 168.424H194.079M148.944 168.424V123.289M194.079 168.424H239.213M194.079 168.424V123.289M239.213 168.424H284.348M239.213 168.424V123.289M284.348 168.424H329.482M284.348 168.424L284.348 123.289M329.482 168.424H374.617M329.482 168.424L329.482 123.289M374.617 168.424H419.751M374.617 168.424L374.617 123.289M419.751 168.424H464.886M419.751 168.424L419.751 123.289M464.886 168.424H510.02M464.886 168.424L464.886 123.289M510.02 168.424H555.155M510.02 168.424L510.02 123.289M555.155 168.424H600.289M555.155 168.424V123.289M600.289 168.424H645.424M600.289 168.424V123.289M645.424 168.424H690.558M645.424 168.424V123.289M690.558 168.424H735.693M690.558 168.424V123.289M735.693 168.424H780.827M735.693 168.424V123.289M780.827 168.424H825.962M780.827 168.424V123.289M825.962 168.424H871.097M825.962 168.424V123.289M871.097 168.424H916.231M871.097 168.424V123.289M916.231 168.424V123.289M13.5405 123.289H58.6751M13.5405 123.289L13.5405 78.1548M58.6751 123.289H103.81M58.6751 123.289V78.1548M103.81 123.289H148.944M103.81 123.289V78.1548M148.944 123.289H194.079M148.944 123.289V78.1548M194.079 123.289H239.213M194.079 123.289V78.1548M239.213 123.289H284.348M239.213 123.289V78.1548M284.348 123.289H329.482M284.348 123.289V78.1548M329.482 123.289H374.617M329.482 123.289V78.1548M374.617 123.289H419.751M374.617 123.289V78.1548M419.751 123.289H464.886M419.751 123.289V78.1548M464.886 123.289H510.02M464.886 123.289V78.1548M510.02 123.289H555.155M510.02 123.289V78.1548M555.155 123.289H600.289M555.155 123.289V78.1548M600.289 123.289H645.424M600.289 123.289V78.1548M645.424 123.289H690.558M645.424 123.289V78.1548M690.558 123.289H735.693M690.558 123.289V78.1548M735.693 123.289H780.827M735.693 123.289V78.1548M780.827 123.289H825.962M780.827 123.289V78.1548M825.962 123.289H871.097M825.962 123.289V78.1548M871.097 123.289H916.231M871.097 123.289V78.1548M916.231 123.289V78.1548M13.5405 78.1548H58.6751M13.5405 78.1548L13.5405 33.0203M58.6751 78.1548H103.81M58.6751 78.1548L58.6751 33.0203M103.81 78.1548H148.944M103.81 78.1548V33.0203M148.944 78.1548H194.079M148.944 78.1548V33.0203M194.079 78.1548H239.213M194.079 78.1548V33.0203M239.213 78.1548H284.348M239.213 78.1548V33.0203M284.348 78.1548H329.482M284.348 78.1548V33.0203M329.482 78.1548H374.617M329.482 78.1548V33.0203M374.617 78.1548H419.751M374.617 78.1548V33.0203M419.751 78.1548H464.886M419.751 78.1548V33.0203M464.886 78.1548H510.02M464.886 78.1548V33.0203M510.02 78.1548H555.155M510.02 78.1548V33.0203M555.155 78.1548H600.289M555.155 78.1548V33.0203M600.289 78.1548H645.424M600.289 78.1548V33.0203M645.424 78.1548H690.558M645.424 78.1548V33.0203M690.558 78.1548H735.693M690.558 78.1548V33.0203M735.693 78.1548H780.827M735.693 78.1548V33.0203M780.827 78.1548H825.962M780.827 78.1548V33.0203M825.962 78.1548H871.097M825.962 78.1548V33.0203M871.097 78.1548H916.231M871.097 78.1548V33.0203M916.231 78.1548V33.0203M13.5405 33.0203H58.6751M13.5405 33.0203L13.5405 -12.1142M58.6751 33.0203H103.81M58.6751 33.0203V-12.1142M103.81 33.0203H148.944M103.81 33.0203L103.81 -12.1142M148.944 33.0203H194.079M148.944 33.0203V-12.1142M194.079 33.0203H239.213M194.079 33.0203V-12.1142M239.213 33.0203H284.348M239.213 33.0203V-12.1142M284.348 33.0203H329.482M284.348 33.0203V-12.1142M329.482 33.0203H374.617M329.482 33.0203V-12.1142M374.617 33.0203H419.751M374.617 33.0203V-12.1142M419.751 33.0203H464.886M419.751 33.0203V-12.1142M464.886 33.0203H510.02M464.886 33.0203V-12.1142M510.02 33.0203H555.155M510.02 33.0203V-12.1142M555.155 33.0203H600.289M555.155 33.0203V-12.1142M600.289 33.0203H645.424M600.289 33.0203V-12.1142M645.424 33.0203H690.558M645.424 33.0203V-12.1142M690.558 33.0203H735.693M690.558 33.0203V-12.1142M735.693 33.0203H780.827M735.693 33.0203V-12.1142M780.827 33.0203H825.962M780.827 33.0203V-12.1142M825.962 33.0203H871.097M825.962 33.0203V-12.1142M871.097 33.0203H916.231M871.097 33.0203V-12.1142M916.231 33.0203V-12.1142M13.5405 -12.1142H58.6751M13.5405 -12.1142L13.5405 -57.2488M58.6751 -12.1142H103.81M58.6751 -12.1142L58.6751 -57.2488M103.81 -12.1142H148.944M103.81 -12.1142V-57.2488M148.944 -12.1142H194.079M148.944 -12.1142V-57.2488M194.079 -12.1142H239.213M194.079 -12.1142V-57.2488M239.213 -12.1142H284.348M239.213 -12.1142V-57.2488M284.348 -12.1142H329.482M284.348 -12.1142V-57.2488M329.482 -12.1142H374.617M329.482 -12.1142V-57.2488M374.617 -12.1142H419.751M374.617 -12.1142V-57.2488M419.751 -12.1142H464.886M419.751 -12.1142V-57.2488M464.886 -12.1142H510.02M464.886 -12.1142V-57.2488M510.02 -12.1142H555.155M510.02 -12.1142V-57.2488M555.155 -12.1142H600.289M555.155 -12.1142V-57.2488M600.289 -12.1142H645.424M600.289 -12.1142V-57.2488M645.424 -12.1142H690.558M645.424 -12.1142V-57.2488M690.558 -12.1142H735.693M690.558 -12.1142V-57.2488M735.693 -12.1142H780.827M735.693 -12.1142V-57.2488M780.827 -12.1142H825.962M780.827 -12.1142V-57.2488M825.962 -12.1142H871.097M825.962 -12.1142V-57.2488M871.097 -12.1142H916.231M871.097 -12.1142V-57.2488M916.231 -12.1142V-57.2488M13.5405 -57.2488H58.6751M13.5405 -57.2488L13.5405 -102.383M58.6751 -57.2488H103.81M58.6751 -57.2488V-102.383M103.81 -57.2488H148.944M103.81 -57.2488V-102.383M148.944 -57.2488H194.079M148.944 -57.2488L148.944 -102.383M194.079 -57.2488H239.213M194.079 -57.2488L194.079 -102.383M239.213 -57.2488H284.348M239.213 -57.2488L239.213 -102.383M284.348 -57.2488H329.482M284.348 -57.2488V-102.383M329.482 -57.2488H374.617M329.482 -57.2488V-102.383M374.617 -57.2488H419.751M374.617 -57.2488V-102.383M419.751 -57.2488H464.886M419.751 -57.2488V-102.383M464.886 -57.2488H510.02M464.886 -57.2488V-102.383M510.02 -57.2488H555.155M510.02 -57.2488V-102.383M555.155 -57.2488H600.289M555.155 -57.2488V-102.383M600.289 -57.2488H645.424M600.289 -57.2488V-102.383M645.424 -57.2488H690.558M645.424 -57.2488V-102.383M690.558 -57.2488H735.693M690.558 -57.2488V-102.383M735.693 -57.2488H780.827M735.693 -57.2488V-102.383M780.827 -57.2488H825.962M780.827 -57.2488V-102.383M825.962 -57.2488H871.097M825.962 -57.2488V-102.383M871.097 -57.2488H916.231M871.097 -57.2488V-102.383M916.231 -57.2488V-102.383M13.5405 -102.383H58.6751M13.5405 -102.383L13.5405 -147.518M58.6751 -102.383H103.81M58.6751 -102.383V-147.518M103.81 -102.383H148.944M103.81 -102.383V-147.518M148.944 -102.383H194.079M148.944 -102.383V-147.518M194.079 -102.383H239.213M194.079 -102.383V-147.518M239.213 -102.383H284.348M239.213 -102.383V-147.518M284.348 -102.383H329.482M284.348 -102.383V-147.518M329.482 -102.383H374.617M329.482 -102.383V-147.518M374.617 -102.383H419.751M374.617 -102.383V-147.518M419.751 -102.383H464.886M419.751 -102.383V-147.518M464.886 -102.383H510.02M464.886 -102.383V-147.518M510.02 -102.383H555.155M510.02 -102.383V-147.518M555.155 -102.383H600.289M555.155 -102.383V-147.518M600.289 -102.383H645.424M600.289 -102.383V-147.518M645.424 -102.383H690.558M645.424 -102.383V-147.518M690.558 -102.383H735.693M690.558 -102.383V-147.518M735.693 -102.383H780.827M735.693 -102.383V-147.518M780.827 -102.383H825.962M780.827 -102.383V-147.518M825.962 -102.383H871.097M825.962 -102.383V-147.518M871.097 -102.383H916.231M871.097 -102.383V-147.518M916.231 -102.383V-147.518M13.5405 -147.518H58.6751M13.5405 -147.518L13.5405 -192.652M58.6751 -147.518H103.81M58.6751 -147.518L58.6751 -192.652M103.81 -147.518H148.944M103.81 -147.518V-192.652M148.944 -147.518H194.079M148.944 -147.518V-192.652M194.079 -147.518H239.213M194.079 -147.518V-192.652M239.213 -147.518H284.348M239.213 -147.518V-192.652M284.348 -147.518H329.482M284.348 -147.518V-192.652M329.482 -147.518H374.617M329.482 -147.518V-192.652M374.617 -147.518H419.751M374.617 -147.518V-192.652M419.751 -147.518H464.886M419.751 -147.518V-192.652M464.886 -147.518H510.02M464.886 -147.518V-192.652M510.02 -147.518H555.155M510.02 -147.518V-192.652M555.155 -147.518H600.289M555.155 -147.518V-192.652M600.289 -147.518H645.424M600.289 -147.518V-192.652M645.424 -147.518H690.558M645.424 -147.518V-192.652M690.558 -147.518H735.693M690.558 -147.518V-192.652M735.693 -147.518H780.827M735.693 -147.518V-192.652M780.827 -147.518H825.962M780.827 -147.518V-192.652M825.962 -147.518H871.097M825.962 -147.518V-192.652M871.097 -147.518H916.231M871.097 -147.518V-192.652M916.231 -147.518V-192.652M13.5405 -192.652H58.6751M13.5405 -192.652L13.5405 -237.787M58.6751 -192.652H103.81M58.6751 -192.652V-237.787M103.81 -192.652H148.944M103.81 -192.652L103.81 -237.787M148.944 -192.652H194.079M148.944 -192.652V-237.787M194.079 -192.652H239.213M194.079 -192.652V-237.787M239.213 -192.652H284.348M239.213 -192.652V-237.787M284.348 -192.652H329.482M284.348 -192.652V-237.787M329.482 -192.652H374.617M329.482 -192.652V-237.787M374.617 -192.652H419.751M374.617 -192.652V-237.787M419.751 -192.652H464.886M419.751 -192.652V-237.787M464.886 -192.652H510.02M464.886 -192.652V-237.787M510.02 -192.652H555.155M510.02 -192.652V-237.787M555.155 -192.652H600.289M555.155 -192.652V-237.787M600.289 -192.652H645.424M600.289 -192.652V-237.787M645.424 -192.652H690.558M645.424 -192.652V-237.787M690.558 -192.652H735.693M690.558 -192.652V-237.787M735.693 -192.652H780.827M735.693 -192.652V-237.787M780.827 -192.652H825.962M780.827 -192.652V-237.787M825.962 -192.652H871.097M825.962 -192.652V-237.787M871.097 -192.652H916.231M871.097 -192.652V-237.787M916.231 -192.652V-237.787M13.5405 -237.787H58.6751M13.5405 -237.787L13.5405 -282.921M58.6751 -237.787H103.81M58.6751 -237.787L58.6751 -282.921M103.81 -237.787H148.944M103.81 -237.787V-282.921M148.944 -237.787H194.079M148.944 -237.787V-282.921M194.079 -237.787H239.213M194.079 -237.787V-282.921M239.213 -237.787H284.348M239.213 -237.787V-282.921M284.348 -237.787H329.482M284.348 -237.787V-282.921M329.482 -237.787H374.617M329.482 -237.787V-282.921M374.617 -237.787H419.751M374.617 -237.787V-282.921M419.751 -237.787H464.886M419.751 -237.787V-282.921M464.886 -237.787H510.02M464.886 -237.787V-282.921M510.02 -237.787H555.155M510.02 -237.787V-282.921M555.155 -237.787H600.289M555.155 -237.787V-282.921M600.289 -237.787H645.424M600.289 -237.787V-282.921M645.424 -237.787H690.558M645.424 -237.787V-282.921M690.558 -237.787H735.693M690.558 -237.787V-282.921M735.693 -237.787H780.827M735.693 -237.787V-282.921M780.827 -237.787H825.962M780.827 -237.787V-282.921M825.962 -237.787H871.097M825.962 -237.787V-282.921M871.097 -237.787H916.231M871.097 -237.787V-282.921M916.231 -237.787V-282.921M13.5405 -282.921H58.6751M13.5405 -282.921L13.5405 -328.056M58.6751 -282.921H103.81M58.6751 -282.921V-328.056M103.81 -282.921H148.944M103.81 -282.921V-328.056M148.944 -282.921H194.079M148.944 -282.921V-328.056M194.079 -282.921H239.213M194.079 -282.921V-328.056M239.213 -282.921H284.348M239.213 -282.921V-328.056M284.348 -282.921H329.482M284.348 -282.921V-328.056M329.482 -282.921H374.617M329.482 -282.921V-328.056M374.617 -282.921H419.751M374.617 -282.921V-328.056M419.751 -282.921H464.886M419.751 -282.921V-328.056M464.886 -282.921H510.02M464.886 -282.921V-328.056M510.02 -282.921H555.155M510.02 -282.921V-328.056M555.155 -282.921H600.289M555.155 -282.921V-328.056M600.289 -282.921H645.424M600.289 -282.921V-328.056M645.424 -282.921H690.558M645.424 -282.921V-328.056M690.558 -282.921H735.693M690.558 -282.921V-328.056M735.693 -282.921H780.827M735.693 -282.921V-328.056M780.827 -282.921H825.962M780.827 -282.921V-328.056M825.962 -282.921H871.097M825.962 -282.921V-328.056M871.097 -282.921H916.231M871.097 -282.921V-328.056M916.231 -282.921V-328.056M13.5405 -328.056H58.6751M13.5405 -328.056L13.5405 -373.191M58.6751 -328.056H103.81M58.6751 -328.056V-373.191M103.81 -328.056H148.944M103.81 -328.056V-373.191M148.944 -328.056H194.079M148.944 -328.056V-373.191M194.079 -328.056H239.213M194.079 -328.056V-373.191M239.213 -328.056H284.348M239.213 -328.056V-373.191M284.348 -328.056H329.482M284.348 -328.056V-373.191M329.482 -328.056H374.617M329.482 -328.056V-373.191M374.617 -328.056H419.751M374.617 -328.056V-373.191M419.751 -328.056H464.886M419.751 -328.056V-373.191M464.886 -328.056H510.02M464.886 -328.056V-373.191M510.02 -328.056H555.155M510.02 -328.056V-373.191M555.155 -328.056H600.289M555.155 -328.056V-373.191M600.289 -328.056H645.424M600.289 -328.056V-373.191M645.424 -328.056H690.558M645.424 -328.056V-373.191M690.558 -328.056H735.693M690.558 -328.056V-373.191M735.693 -328.056H780.827M735.693 -328.056V-373.191M780.827 -328.056H825.962M780.827 -328.056V-373.191M825.962 -328.056H871.097M825.962 -328.056V-373.191M871.097 -328.056H916.231M871.097 -328.056V-373.191M916.231 -328.056V-373.191M13.5405 -373.191H58.6751M13.5405 -373.191L13.5405 -418.325M58.6751 -373.191H103.81M58.6751 -373.191L58.6751 -418.325M103.81 -373.191H148.944M103.81 -373.191V-418.325M148.944 -373.191H194.079M148.944 -373.191V-418.325M194.079 -373.191H239.213M194.079 -373.191V-418.325M239.213 -373.191H284.348M239.213 -373.191V-418.325M284.348 -373.191H329.482M284.348 -373.191V-418.325M329.482 -373.191H374.617M329.482 -373.191V-418.325M374.617 -373.191H419.751M374.617 -373.191V-418.325M419.751 -373.191H464.886M419.751 -373.191V-418.325M464.886 -373.191H510.02M464.886 -373.191V-418.325M510.02 -373.191H555.155M510.02 -373.191V-418.325M555.155 -373.191H600.289M555.155 -373.191V-418.325M600.289 -373.191H645.424M600.289 -373.191V-418.325M645.424 -373.191H690.558M645.424 -373.191V-418.325M690.558 -373.191H735.693M690.558 -373.191V-418.325M735.693 -373.191H780.827M735.693 -373.191V-418.325M780.827 -373.191H825.962M780.827 -373.191V-418.325M825.962 -373.191H871.097M825.962 -373.191V-418.325M871.097 -373.191H916.231M871.097 -373.191V-418.325M916.231 -373.191V-418.325M13.5405 -418.325H58.6751M13.5405 -418.325L13.5405 -463.46H58.6751M58.6751 -418.325H103.81M58.6751 -418.325V-463.46M103.81 -418.325H148.944M103.81 -418.325L103.81 -463.46M148.944 -418.325H194.079M148.944 -418.325V-463.46M194.079 -418.325H239.213M194.079 -418.325V-463.46M239.213 -418.325H284.348M239.213 -418.325V-463.46M284.348 -418.325H329.482M284.348 -418.325V-463.46M329.482 -418.325H374.617M329.482 -418.325V-463.46M374.617 -418.325H419.751M374.617 -418.325V-463.46M419.751 -418.325H464.886M419.751 -418.325V-463.46M464.886 -418.325H510.02M464.886 -418.325V-463.46M510.02 -418.325H555.155M510.02 -418.325V-463.46M555.155 -418.325H600.289M555.155 -418.325V-463.46M600.289 -418.325H645.424M600.289 -418.325V-463.46M645.424 -418.325H690.558M645.424 -418.325V-463.46M690.558 -418.325H735.693M690.558 -418.325V-463.46M735.693 -418.325H780.827M735.693 -418.325V-463.46M780.827 -418.325H825.962M780.827 -418.325V-463.46M825.962 -418.325H871.097M825.962 -418.325V-463.46M871.097 -418.325H916.231M871.097 -418.325V-463.46M916.231 -418.325V-463.46H871.097M58.6751 -463.46H103.81M103.81 -463.46H148.944M148.944 -463.46H194.079M194.079 -463.46H239.213M239.213 -463.46H284.348M284.348 -463.46H329.482M329.482 -463.46H374.617M374.617 -463.46H419.751M419.751 -463.46H464.886M464.886 -463.46H510.02M510.02 -463.46H555.155M555.155 -463.46H600.289M600.289 -463.46H645.424M645.424 -463.46H690.558M690.558 -463.46H735.693M735.693 -463.46H780.827M780.827 -463.46H825.962M825.962 -463.46H871.097" stroke="url(#paint0_radial_882_854)" stroke-opacity="0.75" stroke-width="0.564182"/>
</g>
<g style="mix-blend-mode:soft-light" opacity="0.4">
<path d="M180.538 1341.92H194.079M194.079 1341.92H207.619M194.079 1341.92V1355.46M194.079 1341.92V1328.38M541.615 1341.92H555.155M555.155 1341.92H568.695M555.155 1341.92V1355.46M555.155 1341.92V1328.38M902.691 1341.92H916.231M916.231 1341.92H929.771M916.231 1341.92V1355.46M916.231 1341.92V1328.38M180.538 980.845H194.079M194.079 980.845H207.619M194.079 980.845V994.385M194.079 980.845V967.305M541.615 980.845H555.155M555.155 980.845H568.695M555.155 980.845V994.385M555.155 980.845V967.305M902.691 980.845H916.231M916.231 980.845L929.771 980.845M916.231 980.845V994.385M916.231 980.845V967.305M180.538 619.769H194.079M194.079 619.769H207.619M194.079 619.769V633.309M194.079 619.769V606.229M541.615 619.769H555.155M555.155 619.769H568.695M555.155 619.769V633.309M555.155 619.769L555.155 606.229M902.691 619.769H916.231M916.231 619.769L929.771 619.769M916.231 619.769V633.309M916.231 619.769L916.231 606.229M180.538 258.693H194.079M194.079 258.693H207.619M194.079 258.693V272.233M194.079 258.693V245.152M541.615 258.693H555.155M555.155 258.693H568.695M555.155 258.693V272.233M555.155 258.693V245.152M902.691 258.693H916.231M916.231 258.693H929.771M916.231 258.693V272.233M916.231 258.693V245.152M180.538 -102.384H194.079M194.079 -102.384H207.619M194.079 -102.384V-88.8431M194.079 -102.384V-115.924M541.615 -102.384H555.155M555.155 -102.384H568.695M555.155 -102.384V-88.8431M555.155 -102.384V-115.924M902.691 -102.384H916.231M916.231 -102.384H929.771M916.231 -102.384V-88.8431M916.231 -102.384V-115.924M180.538 -463.46H194.079M194.079 -463.46H207.619M194.079 -463.46V-449.92M194.079 -463.46V-477M541.615 -463.46H555.155M555.155 -463.46H568.695M555.155 -463.46V-449.92M555.155 -463.46V-477M902.691 -463.46H916.231M916.231 -463.46H929.771M916.231 -463.46V-449.92M916.231 -463.46V-477M0.000244141 1341.92H13.5406M13.5406 1341.92H27.081M13.5406 1341.92L13.5406 1355.46M13.5406 1341.92V1328.38M361.077 1341.92H374.617M374.617 1341.92H388.157M374.617 1341.92V1355.46M374.617 1341.92V1328.38M722.153 1341.92H735.693M735.693 1341.92H749.233M735.693 1341.92V1355.46M735.693 1341.92V1328.38M0.000244141 980.845H13.5406M13.5406 980.845H27.081M13.5406 980.845V994.385M13.5406 980.845L13.5406 967.305M361.077 980.845H374.617M374.617 980.845H388.157M374.617 980.845V994.385M374.617 980.845V967.305M722.153 980.845H735.693M735.693 980.845H749.233M735.693 980.845V994.385M735.693 980.845V967.305M0.000244141 619.769H13.5406M13.5406 619.769H27.081M13.5406 619.769L13.5406 633.309M13.5406 619.769V606.229M361.077 619.769H374.617M374.617 619.769H388.157M374.617 619.769V633.309M374.617 619.769V606.229M722.153 619.769H735.693M735.693 619.769H749.233M735.693 619.769V633.309M735.693 619.769L735.693 606.229M0.000244141 258.693H13.5406M13.5406 258.693H27.081M13.5406 258.693V272.233M13.5406 258.693V245.152M361.077 258.693H374.617M374.617 258.693H388.157M374.617 258.693V272.233M374.617 258.693V245.152M722.153 258.693H735.693M735.693 258.693H749.233M735.693 258.693V272.233M735.693 258.693V245.152M0.000244141 -102.384H13.5406M13.5406 -102.384H27.081M13.5406 -102.384V-88.8431M13.5406 -102.384L13.5406 -115.924M361.077 -102.384H374.617M374.617 -102.384H388.157M374.617 -102.384V-88.8431M374.617 -102.384V-115.924M722.153 -102.384H735.693M735.693 -102.384H749.233M735.693 -102.384V-88.8431M735.693 -102.384V-115.924M0.000244141 -463.46H13.5406M13.5406 -463.46H27.081M13.5406 -463.46L13.5406 -449.92M13.5406 -463.46V-477M361.077 -463.46H374.617M374.617 -463.46H388.157M374.617 -463.46V-449.92M374.617 -463.46V-477M722.153 -463.46H735.693M735.693 -463.46H749.233M735.693 -463.46V-449.92M735.693 -463.46V-477M180.538 1522.46H194.079M194.079 1522.46H207.619M194.079 1522.46V1536M194.079 1522.46V1508.92M541.615 1522.46H555.155M555.155 1522.46H568.695M555.155 1522.46V1536M555.155 1522.46V1508.92M902.691 1522.46H916.231M916.231 1522.46H929.771M916.231 1522.46V1536M916.231 1522.46V1508.92M180.538 1161.38H194.079M194.079 1161.38H207.619M194.079 1161.38V1174.92M194.079 1161.38V1147.84M541.615 1161.38H555.155M555.155 1161.38H568.695M555.155 1161.38V1174.92M555.155 1161.38V1147.84M902.691 1161.38H916.231M916.231 1161.38H929.771M916.231 1161.38V1174.92M916.231 1161.38V1147.84M180.538 800.307H194.079M194.079 800.307H207.619M194.079 800.307V813.847M194.079 800.307V786.767M541.615 800.307H555.155M555.155 800.307H568.695M555.155 800.307V813.847M555.155 800.307V786.767M902.691 800.307H916.231M916.231 800.307L929.771 800.307M916.231 800.307V813.847M916.231 800.307V786.767M180.538 439.231H194.079M194.079 439.231H207.619M194.079 439.231V452.771M194.079 439.231V425.69M541.615 439.231H555.155M555.155 439.231H568.695M555.155 439.231V452.771M555.155 439.231V425.69M902.691 439.231H916.231M916.231 439.231H929.771M916.231 439.231V452.771M916.231 439.231V425.69M180.538 78.1545H194.079M194.079 78.1545H207.619M194.079 78.1545V91.6949M194.079 78.1545V64.6141M541.615 78.1545H555.155M555.155 78.1545H568.695M555.155 78.1545V91.6949M555.155 78.1545V64.6141M902.691 78.1545H916.231M916.231 78.1545H929.771M916.231 78.1545V91.6949M916.231 78.1545V64.6141M180.538 -282.922H194.079M194.079 -282.922H207.619M194.079 -282.922V-269.381M194.079 -282.922V-296.462M541.615 -282.922H555.155M555.155 -282.922H568.695M555.155 -282.922V-269.381M555.155 -282.922V-296.462M902.691 -282.922H916.231M916.231 -282.922H929.771M916.231 -282.922V-269.381M916.231 -282.922V-296.462M0.000310705 1522.46H13.5407M13.5407 1522.46H27.081M13.5407 1522.46V1536M13.5407 1522.46L13.5407 1508.92M361.077 1522.46H374.617M374.617 1522.46H388.157M374.617 1522.46V1536M374.617 1522.46V1508.92M722.153 1522.46H735.693M735.693 1522.46H749.233M735.693 1522.46V1536M735.693 1522.46V1508.92M0.000244141 1161.38H13.5406M13.5406 1161.38H27.081M13.5406 1161.38L13.5406 1174.92M13.5406 1161.38V1147.84M361.077 1161.38H374.617M374.617 1161.38H388.157M374.617 1161.38V1174.92M374.617 1161.38V1147.84M722.153 1161.38H735.693M735.693 1161.38H749.233M735.693 1161.38V1174.92M735.693 1161.38V1147.84M0.000244141 800.307H13.5406M13.5406 800.307H27.081M13.5406 800.307V813.847M13.5406 800.307L13.5406 786.767M361.077 800.307H374.617M374.617 800.307H388.157M374.617 800.307V813.847M374.617 800.307V786.767M722.153 800.307H735.693M735.693 800.307H749.233M735.693 800.307V813.847M735.693 800.307V786.767M0.000244141 439.231H13.5406M13.5406 439.231H27.081M13.5406 439.231L13.5406 452.771M13.5406 439.231V425.69M361.077 439.231H374.617M374.617 439.231H388.157M374.617 439.231V452.771M374.617 439.231V425.69M722.153 439.231H735.693M735.693 439.231H749.233M735.693 439.231V452.771M735.693 439.231V425.69M0.000244141 78.1545H13.5406M13.5406 78.1545H27.081M13.5406 78.1545V91.6949M13.5406 78.1545L13.5406 64.6141M361.077 78.1545H374.617M374.617 78.1545H388.157M374.617 78.1545V91.6949M374.617 78.1545V64.6141M722.153 78.1545H735.693M735.693 78.1545H749.233M735.693 78.1545V91.6949M735.693 78.1545V64.6141M0.000244141 -282.922H13.5406M13.5406 -282.922H27.081M13.5406 -282.922L13.5406 -269.381M13.5406 -282.922V-296.462M361.077 -282.922H374.617M374.617 -282.922H388.157M374.617 -282.922V-269.381M374.617 -282.922V-296.462M722.153 -282.922H735.693M735.693 -282.922H749.233M735.693 -282.922V-269.381M735.693 -282.922V-296.462" stroke="url(#paint1_radial_882_854)" stroke-width="1.12836"/>
</g>
</g>
<defs>
<radialGradient id="paint0_radial_882_854" cx="0" cy="0" r="1" gradientUnits="userSpaceOnUse" gradientTransform="translate(464.886 529.5) scale(451.345 992.96)">
<stop stop-color="white"/>
<stop offset="1" stop-color="white" stop-opacity="0"/>
</radialGradient>
<radialGradient id="paint1_radial_882_854" cx="0" cy="0" r="1" gradientUnits="userSpaceOnUse" gradientTransform="translate(464.886 529.5) scale(464.886 1006.5)">
<stop stop-color="#E38C5A"/>
<stop offset="1" stop-color="#FFF3EC" stop-opacity="0"/>
</radialGradient>
</defs>
</svg>