<svg xmlns="http://www.w3.org/2000/svg" width="22" height="21" viewBox="0 0 22 21" fill="none">
<path fill-rule="evenodd" clip-rule="evenodd" d="M0.849609 10.5655C0.849609 4.95984 5.39392 0.415527 10.9996 0.415527C16.6053 0.415527 21.1496 4.95984 21.1496 10.5655C21.1496 16.1712 16.6053 20.7155 10.9996 20.7155C5.39392 20.7155 0.849609 16.1712 0.849609 10.5655ZM8.60676 6.75847C8.21624 6.36795 7.58308 6.36795 7.19255 6.75847C6.80203 7.14899 6.80203 7.78216 7.19255 8.17268L9.58544 10.5656L7.19255 12.9585C6.80203 13.349 6.80203 13.9822 7.19255 14.3727C7.58308 14.7632 8.21624 14.7632 8.60676 14.3727L10.9997 11.9798L13.3926 14.3727C13.7831 14.7632 14.4162 14.7632 14.8068 14.3727C15.1973 13.9822 15.1973 13.349 14.8068 12.9585L12.4139 10.5656L14.8068 8.17268C15.1973 7.78216 15.1973 7.14899 14.8068 6.75847C14.4162 6.36795 13.7831 6.36795 13.3926 6.75847L10.9997 9.15136L8.60676 6.75847Z" fill="#D84949"/>
</svg>